Coordinates
version=1
nRows=20
nColumns=38
inDegrees=no

Units are S.I. units (second, meters, Newtons, ...)
If the header above contains a line with 'inDegrees', this indicates whether rotational values are in degrees (yes) or radians (no).

endheader
time	pelvis_tilt	pelvis_list	pelvis_rotation	pelvis_tx	pelvis_ty	pelvis_tz	hip_flexion_r	hip_adduction_r	hip_rotation_r	knee_angle_r	ankle_angle_r	subtalar_angle_r	mtp_angle_r	hip_flexion_l	hip_adduction_l	hip_rotation_l	knee_angle_l	ankle_angle_l	subtalar_angle_l	mtp_angle_l	lumbar_extension	lumbar_bending	lumbar_rotation	arm_flex_r	arm_add_r	arm_rot_r	elbow_flex_r	pro_sup_r	wrist_flex_r	wrist_dev_r	arm_flex_l	arm_add_l	arm_rot_l	elbow_flex_l	pro_sup_l	wrist_flex_l	wrist_dev_l
1.2	-2.89375	1.41302	-1.72374	0.538945	0.791433	0.947529	0.244141	-0.177975	-0.11172	1.24841	0.00242461	0	0	-0.0614898	0.0662591	-0.206528	0.287361	0.213039	0	0	-0.253916	-0.0687436	-0.165825	-0.150748	-0.21738	0.233473	0.569182	0.275551	0	0	-0.0646012	-0.389175	0.40271	0.715545	1.28223	0	0
1.21	-2.92802	1.41302	-1.68162	0.537653	0.80058	0.948848	0.259769	-0.174571	-0.119267	1.22465	0.0221897	0	0	-0.0803941	0.0616486	-0.195457	0.272335	0.212222	0	0	-0.257097	-0.0604762	-0.173877	-0.152129	-0.216428	0.231375	0.571874	0.280765	0	0	-0.056336	-0.392446	0.400141	0.720385	1.27972	0	0
1.22	-2.95968	1.41278	-1.64269	0.536431	0.809624	0.949971	0.274088	-0.171739	-0.127093	1.19694	0.0423629	0	0	-0.0989328	0.0571659	-0.184568	0.25766	0.211459	0	0	-0.260433	-0.0525877	-0.181247	-0.153299	-0.215042	0.226766	0.575103	0.287876	0	0	-0.047932	-0.395765	0.397387	0.725952	1.27737	0	0
1.23	-2.98893	1.4121	-1.60706	0.535315	0.818628	0.950922	0.286785	-0.169374	-0.135168	1.16539	0.0607076	0	0	-0.117832	0.0529262	-0.17398	0.242679	0.210692	0	0	-0.264026	-0.0451966	-0.18771	-0.153881	-0.213433	0.220932	0.578341	0.295483	0	0	-0.0395145	-0.399011	0.394279	0.731873	1.27484	0	0
1.24	-3.0156	1.41109	-1.57482	0.534314	0.827613	0.951702	0.297909	-0.167496	-0.143879	1.12993	0.076391	0	0	-0.137114	0.0489365	-0.163898	0.227312	0.210078	0	0	-0.267764	-0.0383396	-0.193402	-0.153871	-0.211757	0.21502	0.581638	0.303219	0	0	-0.0310367	-0.402274	0.390982	0.737945	1.27249	0	0
1.25	-3.03924	1.40972	-1.54635	0.533421	0.83658	0.952322	0.307302	-0.166191	-0.153557	1.09069	0.0892577	0	0	-0.15703	0.0454038	-0.153956	0.211056	0.209043	0	0	-0.271806	-0.0320211	-0.198373	-0.153227	-0.210052	0.20803	0.585391	0.311878	0	0	-0.0224046	-0.405506	0.387544	0.744319	1.27034	0	0
1.26	-3.06035	1.40814	-1.52105	0.532598	0.845551	0.952763	0.315076	-0.165528	-0.1649	1.04822	0.100281	0	0	-0.177492	0.0422764	-0.144112	0.193885	0.207529	0	0	-0.275894	-0.0261282	-0.202745	-0.151761	-0.208797	0.201949	0.589387	0.319819	0	0	-0.0138126	-0.408519	0.383668	0.750669	1.26886	0	0
1.27	-3.07847	1.40675	-1.49914	0.531823	0.854525	0.952988	0.321564	-0.16561	-0.178376	1.00282	0.110145	0	0	-0.197874	0.0395627	-0.134392	0.176388	0.20567	0	0	-0.279667	-0.0206949	-0.206465	-0.14984	-0.208062	0.197462	0.593837	0.325481	0	0	-0.00473952	-0.411571	0.38088	0.756592	1.26879	0	0
1.28	-3.09261	1.40595	-1.48156	0.531078	0.863423	0.952927	0.327313	-0.166327	-0.193371	0.954775	0.119503	0	0	-0.217048	0.0375142	-0.125125	0.159655	0.20372	0	0	-0.28285	-0.0159395	-0.209689	-0.147404	-0.207472	0.192344	0.59868	0.331489	0	0	0.00496449	-0.414517	0.378988	0.761959	1.2701	0	0
1.29	-3.10254	1.40599	-1.4686	0.530364	0.872269	0.952558	0.332531	-0.167236	-0.20871	0.904069	0.12866	0	0	-0.234501	0.0362467	-0.11649	0.144364	0.201725	0	0	-0.285248	-0.0119758	-0.212922	-0.143992	-0.207392	0.188787	0.603371	0.336605	0	0	0.0144506	-0.417114	0.376299	0.767132	1.27167	0	0
1.3	-3.11041	1.40674	-1.4583	0.529766	0.881133	0.951894	0.337194	-0.167844	-0.224368	0.850873	0.136921	0	0	-0.250413	0.0353558	-0.10856	0.130737	0.200079	0	0	-0.286967	-0.00856285	-0.215501	-0.140063	-0.207812	0.187118	0.608053	0.340138	0	0	0.0237656	-0.419665	0.37383	0.772355	1.27453	0	0
1.31	-3.11703	1.4082	-1.44984	0.529307	0.89002	0.950925	0.341378	-0.167951	-0.240908	0.795354	0.143676	0	0	-0.264482	0.0346545	-0.101872	0.119549	0.199964	0	0	-0.288039	-0.00560101	-0.21701	-0.136043	-0.208576	0.186405	0.613087	0.342405	0	0	0.0334404	-0.422309	0.372558	0.777351	1.27824	0	0
1.32	-3.12304	1.41027	-1.44264	0.528983	0.898904	0.949666	0.345185	-0.167394	-0.25812	0.737785	0.149154	0	0	-0.276644	0.0339555	-0.0972331	0.111192	0.202217	0	0	-0.288563	-0.00300984	-0.217652	-0.132048	-0.209035	0.184047	0.618605	0.345554	0	0	0.0433209	-0.424962	0.372409	0.78241	1.2818	0	0
1.33	-3.12971	1.4128	-1.43527	0.528801	0.907824	0.948158	0.348348	-0.165792	-0.275898	0.67825	0.153699	0	0	-0.287169	0.0328868	-0.0943306	0.105546	0.206965	0	0	-0.288658	-0.000557278	-0.217376	-0.128389	-0.209175	0.180742	0.624562	0.349368	0	0	0.0534247	-0.427463	0.373023	0.78729	1.28525	0	0
1.34	-3.13621	1.41573	-1.42867	0.528808	0.916761	0.946458	0.35099	-0.162951	-0.293216	0.617303	0.157477	0	0	-0.29636	0.0316248	-0.0926048	0.102158	0.213383	0	0	-0.288544	0.00150923	-0.216181	-0.12448	-0.209498	0.178465	0.630374	0.353003	0	0	0.0636787	-0.429919	0.373941	0.791892	1.28904	0	0
1.35	-3.13748	1.41985	-1.42854	0.529061	0.925642	0.944526	0.35476	-0.159453	-0.308047	0.556697	0.1606	0	0	-0.303172	0.0312352	-0.0933623	0.10141	0.221323	0	0	-0.287624	0.00207139	-0.21376	-0.119905	-0.209831	0.177903	0.635221	0.354377	0	0	0.0740621	-0.432437	0.375337	0.796247	1.29072	0	0
1.36	-3.13826	1.42308	-1.43003	0.529507	0.93446	0.942594	0.356467	-0.153987	-0.319911	0.494634	0.162444	0	0	-0.310732	0.0307423	-0.0953831	0.101329	0.230347	0	0	-0.288218	0.00244296	-0.210125	-0.114929	-0.210159	0.177521	0.640508	0.355915	0	0	0.0848004	-0.434636	0.376477	0.8003	1.29333	0	0
1.37	-3.13721	1.42634	-1.43407	0.530111	0.943337	0.940585	0.356805	-0.147084	-0.327185	0.432035	0.163846	0	0	-0.31815	0.0303111	-0.0982654	0.102024	0.240136	0	0	-0.288945	0.0022614	-0.205929	-0.110224	-0.209787	0.175585	0.646176	0.357696	0	0	0.0951871	-0.436507	0.377049	0.803778	1.29639	0	0
1.38	-3.13399	1.4299	-1.441	0.530858	0.952254	0.938497	0.356091	-0.138967	-0.328819	0.369295	0.164709	0	0	-0.324903	0.0301043	-0.102348	0.103763	0.250258	0	0	-0.289486	0.00150133	-0.201114	-0.105604	-0.209018	0.172334	0.651709	0.359822	0	0	0.105365	-0.43797	0.377323	0.806391	1.29986	0	0
1.39	-3.12914	1.4333	-1.44974	0.531781	0.961297	0.93639	0.353227	-0.129084	-0.323516	0.306441	0.165575	0	0	-0.331413	0.029671	-0.107704	0.106834	0.260769	0	0	-0.290111	0.000306885	-0.196156	-0.100948	-0.207991	0.169211	0.656388	0.362441	0	0	0.115212	-0.4394	0.377725	0.808084	1.3037	0	0
